<?xml version="1.0" encoding="utf-8"?>
<!-- Generator: Adobe Illustrator 28.0.0, SVG Export Plug-In . SVG Version: 6.00 Build 0)  -->
<svg version="1.1" id="Capa_1" xmlns="http://www.w3.org/2000/svg" xmlns:xlink="http://www.w3.org/1999/xlink" x="0px" y="0px"
	 viewBox="0 0 376 373" style="enable-background:new 0 0 376 373;" xml:space="preserve">
<style type="text/css">
	.st0{fill:#008B76;}
</style>
<rect x="167.4" y="24.6" transform="matrix(0.8009 -0.5989 0.5989 0.8009 -5.1947 128.3345)" class="st0" width="46" height="94.8"/>
<rect x="92.3" y="51.7" transform="matrix(0.2285 -0.9735 0.9735 0.2285 -7.5502 188.6532)" class="st0" width="46" height="94.8"/>
<rect x="28" y="145.1" transform="matrix(0.8927 -0.4507 0.4507 0.8927 -67.682 52.0083)" class="st0" width="94.8" height="46"/>
<rect x="41.7" y="223.8" transform="matrix(0.3941 -0.9191 0.9191 0.3941 -172.8182 231.3698)" class="st0" width="94.8" height="46"/>
<rect x="127.1" y="250.7" transform="matrix(0.9574 -0.2888 0.2888 0.9574 -79.6819 56.0452)" class="st0" width="46" height="94.8"/>
<rect x="206.8" y="250.9" transform="matrix(0.5477 -0.8367 0.8367 0.5477 -145.5902 327.1945)" class="st0" width="46" height="94.8"/>
<rect x="243.6" y="224" transform="matrix(0.993 -0.1182 0.1182 0.993 -27.1504 36.1309)" class="st0" width="94.8" height="46"/>
<rect x="257.6" y="145.5" transform="matrix(0.6847 -0.7288 0.7288 0.6847 -26.6401 275.3773)" class="st0" width="94.8" height="46"/>
<rect x="217.8" y="76.3" transform="matrix(5.602708e-02 -0.9984 0.9984 5.602708e-02 151.1973 358.5022)" class="st0" width="94.8" height="46"/>
</svg>
