<?xml version="1.0" encoding="utf-8"?>
<!-- Generator: Adobe Illustrator 18.1.1, SVG Export Plug-In . SVG Version: 6.00 Build 0)  -->
<svg version="1.1" id="Capa_1" xmlns="http://www.w3.org/2000/svg" xmlns:xlink="http://www.w3.org/1999/xlink" x="0px" y="0px"
	 viewBox="0 0 595.3 841.9" enable-background="new 0 0 595.3 841.9" xml:space="preserve">
<rect x="266.3" y="206.6" transform="matrix(0.8009 -0.5989 0.5989 0.8009 -94.4601 223.8109)" fill="#008B76" width="46" height="94.8"/>
<rect x="191.3" y="233.7" transform="matrix(0.2285 -0.9735 0.9735 0.2285 -108.363 425.4801)" fill="#008B76" width="46" height="94.8"/>
<rect x="151.3" y="302.8" transform="matrix(-0.4507 -0.8927 0.8927 -0.4507 -59.7027 663.5526)" fill="#008B76" width="46" height="94.8"/>
<rect x="165" y="381.3" transform="matrix(-0.9191 -0.3941 0.3941 -0.9191 191.9068 896.8628)" fill="#008B76" width="46" height="94.8"/>
<rect x="226.1" y="432.7" transform="matrix(-0.9574 0.2888 -0.2888 -0.9574 626.2301 867.7616)" fill="#008B76" width="46" height="94.8"/>
<rect x="305.9" y="432.8" transform="matrix(-0.5477 0.8367 -0.8367 -0.5477 910.7477 468.068)" fill="#008B76" width="46" height="94.8"/>
<rect x="367" y="381.6" transform="matrix(0.1182 0.993 -0.993 0.1182 769.9314 -9.0163)" fill="#008B76" width="46" height="94.8"/>
<rect x="381" y="303.1" transform="matrix(0.7288 0.6847 -0.6847 0.7288 349.5109 -181.5842)" fill="#008B76" width="46" height="94.8"/>
<rect x="341.2" y="233.9" transform="matrix(0.9984 5.602544e-02 -5.602544e-02 0.9984 16.3331 -19.9631)" fill="#008B76" width="46" height="94.8"/>
</svg>
